<svg width="105" height="30" viewBox="0 0 105 30" fill="none" xmlns="http://www.w3.org/2000/svg">
<g clip-path="url(#clip0_131_1977)">
<path d="M28.0184 20.7058C25.0629 17.9572 20.1714 13.3117 18.7857 12.0491C17.5179 10.8937 17.0942 8.66885 18.3974 8.19985C22.0753 6.8765 22.7209 10.3319 25.8926 9.19039C31.8284 7.05422 28.6913 -1.63862 23.3797 0.272956C19.2347 1.7646 20.8938 5.87148 17.7331 7.00892C15.1497 7.93876 13.6083 7.15268 12.5445 6.3128C12.4809 6.26248 12.4188 6.21215 12.3586 6.16182C12.3586 6.16182 7.70981 1.93163 7.70981 1.93131C2.98215 -2.23597 -3.1068 4.109 1.83638 8.81292C4.76102 11.5961 10.7427 17.0226 12.1281 18.2852C13.3958 19.4406 13.8196 21.6655 12.5163 22.1345C8.83846 23.4578 8.19282 20.0024 5.02117 21.144C-0.914621 23.2801 2.22248 31.973 7.53403 30.0614C11.679 28.5697 10.02 24.4629 13.1806 23.3254C16.3416 22.188 17.9428 23.6186 19.0177 24.5742C19.0562 24.6085 22.684 28.0558 22.7228 28.0882C26.6428 31.3432 33.031 25.3675 28.0181 20.7055L28.0184 20.7058Z" fill="url(#paint0_linear_131_1977)"/>
</g>
<path d="M53.7601 23.6551C52.4255 23.6551 51.2641 23.3865 50.2761 22.8491C49.2881 22.2945 48.5255 21.5145 47.9881 20.5091C47.4508 19.5038 47.1821 18.3251 47.1821 16.9731C47.1821 15.6211 47.4508 14.4598 47.9881 13.4891C48.5255 12.5011 49.2881 11.7471 50.2761 11.2271C51.2641 10.6898 52.4255 10.4211 53.7601 10.4211C54.5748 10.4211 55.3808 10.5511 56.1781 10.8111C56.9755 11.0711 57.6341 11.4351 58.1541 11.9031L57.1921 14.1651C56.7415 13.7665 56.2301 13.4631 55.6581 13.2551C55.1035 13.0471 54.5661 12.9431 54.0461 12.9431C52.9195 12.9431 52.0441 13.2985 51.4201 14.0091C50.8135 14.7025 50.5101 15.6991 50.5101 16.9991C50.5101 18.2818 50.8135 19.2958 51.4201 20.0411C52.0441 20.7691 52.9195 21.1331 54.0461 21.1331C54.5488 21.1331 55.0861 21.0291 55.6581 20.8211C56.2301 20.6131 56.7415 20.3011 57.1921 19.8851L58.1541 22.1731C57.6341 22.6238 56.9668 22.9878 56.1521 23.2651C55.3548 23.5251 54.5575 23.6551 53.7601 23.6551Z" fill="#333333"/>
<path d="M60.1478 23.3951V5.06513H63.3978V13.2291H63.0338C63.4151 12.3105 64.0045 11.6171 64.8018 11.1491C65.6165 10.6638 66.5351 10.4211 67.5578 10.4211C68.5805 10.4211 69.4211 10.6118 70.0798 10.9931C70.7385 11.3745 71.2325 11.9551 71.5618 12.7351C71.8911 13.4978 72.0558 14.4685 72.0558 15.6471V23.3951H68.8058V15.8031C68.8058 15.1445 68.7191 14.6071 68.5458 14.1911C68.3898 13.7751 68.1385 13.4718 67.7918 13.2811C67.4625 13.0731 67.0378 12.9691 66.5178 12.9691C65.8938 12.9691 65.3478 13.1078 64.8798 13.3851C64.4118 13.6451 64.0478 14.0265 63.7878 14.5291C63.5278 15.0145 63.3978 15.5865 63.3978 16.2451V23.3951H60.1478Z" fill="#333333"/>
<path d="M75.1488 7.95113V4.77913H78.7888V7.95113H75.1488ZM75.3568 23.3951V10.6811H78.6068V23.3951H75.3568Z" fill="#333333"/>
<path d="M87.8077 23.6551C86.1091 23.6551 84.8437 23.2305 84.0117 22.3811C83.1797 21.5318 82.7637 20.2925 82.7637 18.6631V13.1251H80.3197V10.6811H82.7637V6.88512H86.0137V10.6811H89.8617V13.1251H86.0137V18.4811C86.0137 19.3131 86.1957 19.9371 86.5597 20.3531C86.9237 20.7691 87.5131 20.9771 88.3277 20.9771C88.5704 20.9771 88.8217 20.9511 89.0817 20.8991C89.3417 20.8298 89.6104 20.7605 89.8877 20.6911L90.3817 23.0831C90.0697 23.2565 89.6711 23.3951 89.1857 23.4991C88.7177 23.6031 88.2584 23.6551 87.8077 23.6551Z" fill="#333333"/>
<path d="M97.0499 23.6551C95.3513 23.6551 94.0859 23.2305 93.2539 22.3811C92.4219 21.5318 92.0059 20.2925 92.0059 18.6631V13.1251H89.5619V10.6811H92.0059V6.88512H95.2559V10.6811H99.1039V13.1251H95.2559V18.4811C95.2559 19.3131 95.4379 19.9371 95.8019 20.3531C96.1659 20.7691 96.7553 20.9771 97.5699 20.9771C97.8126 20.9771 98.0639 20.9511 98.3239 20.8991C98.5839 20.8298 98.8526 20.7605 99.1299 20.6911L99.6239 23.0831C99.3119 23.2565 98.9133 23.3951 98.4279 23.4991C97.9599 23.6031 97.5006 23.6551 97.0499 23.6551Z" fill="#333333"/>
<path d="M100.996 7.95113V4.77913H104.636V7.95113H100.996ZM101.204 23.3951V10.6811H104.454V23.3951H101.204Z" fill="#333333"/>
<defs>
<linearGradient id="paint0_linear_131_1977" x1="0" y1="15.1672" x2="29.8598" y2="15.1672" gradientUnits="userSpaceOnUse">
<stop stop-color="#FF323F"/>
<stop offset="1" stop-color="#FF37E4"/>
</linearGradient>
<clipPath id="clip0_131_1977">
<rect width="29.8603" height="30" fill="white"/>
</clipPath>
</defs>
</svg>
